<svg xmlns="http://www.w3.org/2000/svg" xmlns:xlink="http://www.w3.org/1999/xlink" width="120" height="120" viewBox="0 0 120 120"><defs><clipPath id="a"><rect width="120" height="120" transform="translate(280 10431)" fill="#fff"/></clipPath></defs><g transform="translate(-280 -10431)" clip-path="url(#a)"><g transform="translate(283.557 10435.604)"><path d="M40.744,96.954A23.554,23.554,0,0,1,17.19,73.4V70" fill="none" stroke="#419F81" stroke-linecap="round" stroke-linejoin="round" stroke-width="2"/><path d="M11.769,75.422,17.191,70l5.421,5.422" fill="none" stroke="#419F81" stroke-linecap="round" stroke-linejoin="round" stroke-width="2"/><path d="M71.326,13.843A23.555,23.555,0,0,1,94.881,37.4v3.4" fill="none" stroke="#419F81" stroke-linecap="round" stroke-linejoin="round" stroke-width="2"/><path d="M100.3,35.375,94.88,40.8l-5.421-5.422" fill="none" stroke="#419F81" stroke-linecap="round" stroke-linejoin="round" stroke-width="2"/><path d="M111.886,79.873a29.921,29.921,0,1,1-29.92-29.92A29.92,29.92,0,0,1,111.886,79.873Z" fill="none" stroke="#419F81" stroke-linecap="round" stroke-linejoin="round" stroke-width="2"/><path d="M107.442,79.873A25.477,25.477,0,1,1,81.966,54.4,25.476,25.476,0,0,1,107.442,79.873Z" fill="none" stroke="#419F81" stroke-linecap="round" stroke-linejoin="round" stroke-width="2"/><path d="M92.236,67.2H86.279L81.97,77.732,77.652,67.2H71.7l6.092,13.309H73.171V84.82H79.02v1H73.171v4.314H79.02v4.54h5.742v-4.54h5.42V85.818h-5.42v-1h5.42V80.505H86.111Z" fill="none" stroke="#419F81" stroke-linecap="round" stroke-linejoin="round" stroke-width="2"/><path d="M60.841,30.92A29.92,29.92,0,1,1,30.921,1,29.92,29.92,0,0,1,60.841,30.92Z" fill="none" stroke="#419F81" stroke-linecap="round" stroke-linejoin="round" stroke-width="2"/><path d="M56.4,30.92A25.476,25.476,0,1,1,30.921,5.444,25.476,25.476,0,0,1,56.4,30.92Z" fill="none" stroke="#419F81" stroke-linecap="round" stroke-linejoin="round" stroke-width="2"/><path d="M39.7,33.357a5.947,5.947,0,0,0-1.466-1.977A8.6,8.6,0,0,0,36,29.965a14.931,14.931,0,0,0-2.828-.92l-2.116-.5a12.086,12.086,0,0,1-1.449-.42,5.807,5.807,0,0,1-1.195-.587,2.621,2.621,0,0,1-.811-.81,1.91,1.91,0,0,1-.27-1.1,2.216,2.216,0,0,1,.442-1.356,2.9,2.9,0,0,1,1.283-.938,5.5,5.5,0,0,1,2.058-.339,4.7,4.7,0,0,1,2.84.77,2.911,2.911,0,0,1,1.184,2.162h4.772a6.614,6.614,0,0,0-1.127-3.7,7.255,7.255,0,0,0-3.053-2.5,10.4,10.4,0,0,0-3.708-.858V16.2H29.061V19a10.245,10.245,0,0,0-2.51.722,7.642,7.642,0,0,0-3.18,2.5,6.152,6.152,0,0,0-1.143,3.737A5.25,5.25,0,0,0,23.941,30.1a10.759,10.759,0,0,0,4.7,2.265l2.564.644a14.048,14.048,0,0,1,2.18.69,3.641,3.641,0,0,1,1.356.92,1.976,1.976,0,0,1,.466,1.334,2.358,2.358,0,0,1-.518,1.506,3.387,3.387,0,0,1-1.454,1.024,6.014,6.014,0,0,1-2.2.367,6.3,6.3,0,0,1-2.306-.4,3.666,3.666,0,0,1-1.62-1.184,3.557,3.557,0,0,1-.685-1.972H21.607a7.669,7.669,0,0,0,1.236,4.26,7.215,7.215,0,0,0,3.288,2.593,11.476,11.476,0,0,0,2.93.736v2.748h2.963V42.991a11.8,11.8,0,0,0,3.984-.832,7,7,0,0,0,3.128-2.45,6.508,6.508,0,0,0,1.1-3.741A6.327,6.327,0,0,0,39.7,33.357Z" fill="none" stroke="#419F81" stroke-linecap="round" stroke-linejoin="round" stroke-width="2"/></g></g></svg>