<svg height="24" viewBox="0 0 24 24" width="24" xmlns="http://www.w3.org/2000/svg"><path d="m0 0h24v24h-24z" fill="none"/><path d="m-1919.35 18.744a2.283 2.283 0 0 1 2.3-2.257 2.283 2.283 0 0 1 2.3 2.257 2.283 2.283 0 0 1 -2.3 2.256 2.283 2.283 0 0 1 -2.3-2.256zm1.127 0a1.167 1.167 0 0 0 1.178 1.153 1.167 1.167 0 0 0 1.178-1.153 1.166 1.166 0 0 0 -1.178-1.153 1.166 1.166 0 0 0 -1.178 1.153zm-9.629 0a2.284 2.284 0 0 1 2.3-2.257 2.283 2.283 0 0 1 2.3 2.257 2.283 2.283 0 0 1 -2.3 2.256 2.284 2.284 0 0 1 -2.3-2.256zm1.127 0a1.167 1.167 0 0 0 1.178 1.153 1.167 1.167 0 0 0 1.178-1.153 1.166 1.166 0 0 0 -1.178-1.153 1.167 1.167 0 0 0 -1.178 1.153zm.205-2.607a.56.56 0 0 1 -.554-.453l-2.081-11.158-2.384-.433a.552.552 0 0 1 -.451-.642.563.563 0 0 1 .656-.442l2.766.5a.557.557 0 0 1 .451.443l.541 2.9 14.013.009a.568.568 0 0 1 .459.232.542.542 0 0 1 .073.5l-1.844 5.215a.561.561 0 0 1 -.532.371h-10.99l.347 1.855h10.8a.558.558 0 0 1 .563.552.558.558 0 0 1 -.563.552zm-.492-6.261.41 2.2h10.794l1.454-4.112-13.016-.009z" fill="#222" transform="translate(1934.5)"/></svg>