<svg viewBox="0 0 83.01 83.01" xmlns="http://www.w3.org/2000/svg"><g stroke-linecap="round" stroke-linejoin="round" stroke-width="3"><path d="m41.5 1.5a40 40 0 1 1 -40 40.32 40 40 0 0 1 40-40.32" opacity=".4" stroke="#000"/><g fill="none" stroke="#fff"><path d="m41.5 1.5a40 40 0 1 1 -40 40.32 40 40 0 0 1 40-40.32" opacity=".2"/><path d="m41.5 1.5a40 40 0 1 1 -40 40.32 40 40 0 0 1 40-40.32" opacity=".902"/><path d="m35 30 20 12-20 12z" opacity=".2"/><path d="m35 30 20 12-20 12z" opacity=".902"/></g></g></svg>