<svg xmlns="http://www.w3.org/2000/svg" width="14" height="14"><path fill="#666" fill-rule="evenodd" d="M13.985 3.615L12.66 7.72a.495.495 0 0 1-.472.342H4.056l.318.958H11.5a.5.5 0 0 1 .507.49c0 .27-.227.489-.507.489H3.95a.502.502 0 0 1-.506-.411L1.928 1.247.387.978A.494.494 0 0 1-.002.436.497.497 0 0 1 .552.008l1.893.328a.494.494 0 0 1 .406.403l.367 2.232h10.293a.493.493 0 0 1 .474.644zm-9.488 7.371a1.501 1.501 0 1 1 0 3.004 1.5 1.5 0 0 1-1.499-1.502 1.5 1.5 0 0 1 1.499-1.502zm7.01 0a1.502 1.502 0 0 1 0 3.004 1.5 1.5 0 0 1-1.499-1.502 1.5 1.5 0 0 1 1.499-1.502z"/></svg>