<svg height="16.002" viewBox="0 0 16.002 16.002" width="16.002" xmlns="http://www.w3.org/2000/svg"><path d="m10826 1376a8 8 0 1 1 8 8 8.011 8.011 0 0 1 -8-8zm1.657 0a6.345 6.345 0 1 0 6.343-6.343 6.352 6.352 0 0 0 -6.345 6.343zm5.883 4a.529.529 0 0 1 -.53-.528v-.928a.531.531 0 0 1 .53-.531h.925a.534.534 0 0 1 .531.531v.928a.531.531 0 0 1 -.531.528zm0-2.754a.5.5 0 0 1 -.53-.465v-4.313a.5.5 0 0 1 .53-.468h.925a.5.5 0 0 1 .531.468v4.313a.5.5 0 0 1 -.531.465z" fill="#fff" transform="translate(-10825.998 -1367.999)"/></svg>