<svg height="32" width="32" xmlns="http://www.w3.org/2000/svg"><path d="m16 31.999c-8.822 0-16-7.177-16-15.999s7.178-16 16-16 16 7.178 16 16-7.178 15.999-16 15.999zm0-28.736c-7.023 0-12.737 5.715-12.737 12.737 0 7.023 5.714 12.737 12.737 12.737s12.737-5.714 12.737-12.737c0-7.022-5.714-12.737-12.737-12.737zm-.34 18.667c-.342.3-.751.462-1.17.476h-.049c-.451 0-.88-.199-1.18-.551l-4.251-4.506a1.809 1.809 0 0 1 -.486-1.261c.006-.476.188-.918.513-1.249a1.654 1.654 0 0 1 2.41.028l3.08 3.284 6.084-5.98a1.689 1.689 0 0 1 2.416.117c.624.727.573 1.839-.104 2.492z" fill="#d9d9d9" fill-rule="evenodd"/></svg>