<svg height="30" width="30" xmlns="http://www.w3.org/2000/svg"><path d="m15 30c-8.271 0-15-6.729-15-15 0-8.27 6.729-15 15-15s15 6.73 15 15c0 8.271-6.729 15-15 15zm0-26.941c-6.584 0-11.941 5.357-11.941 11.941s5.357 11.941 11.941 11.941 11.941-5.357 11.941-11.941-5.357-11.941-11.941-11.941zm-.691 16.534c-.307.26-.674.4-1.051.412h-.045c-.404 0-.79-.172-1.059-.475l-3.819-3.889a1.527 1.527 0 0 1 .024-2.166 1.529 1.529 0 0 1 2.165.024l2.768 2.834 6.424-6.081a1.56 1.56 0 0 1 2.17.102 1.54 1.54 0 0 1 -.092 2.15z" fill="#39f" fill-rule="evenodd"/></svg>