<svg height="22" viewBox="0 0 18 22" width="18" xmlns="http://www.w3.org/2000/svg"><g transform="translate(-16 -16.001)"><path d="m26.94 16-8.54.024a2.465 2.465 0 0 0 -2.4 2.513v16.952a2.465 2.465 0 0 0 2.4 2.511h13.2a2.465 2.465 0 0 0 2.4-2.511v-12.4a2.46 2.46 0 0 0 -.724-1.781l-4.706-4.625a2.219 2.219 0 0 0 -1.63-.683zm.136 2.379v3.153a1.535 1.535 0 0 0 1.5 1.57h3.174v12.544h-13.5v-17.266h8.827z" fill="#666"/><g fill="none" stroke="#666" stroke-miterlimit="10" stroke-width="1.5"><g transform="translate(20.243 31.839)"><path d="m0 0h9.514v1.884h-9.514z" stroke="none"/><path d="m.75.75h8.014v.384h-8.014z" fill="none"/></g><g transform="translate(20.243 28.241)"><path d="m0 0h9.514v1.884h-9.514z" stroke="none"/><path d="m.75.75h8.014v.384h-8.014z" fill="none"/></g><g transform="translate(20.24 24.644)"><path d="m0 0h5.382v1.884h-5.382z" stroke="none"/><path d="m.75.75h3.882v.384h-3.882z" fill="none"/></g></g></g></svg>