<svg height="190" viewBox="0 0 190 190" width="190" xmlns="http://www.w3.org/2000/svg"><path d="m0 0h190v190h-190z" fill="none"/><path d="m145.983 124.593-.02-.02c-3.117-3.319-13.332-17.1-13.812-54.639a58.582 58.582 0 0 0 -.637-8.386 61.944 61.944 0 0 0 -39.214-51.173v-1.875a19.851 19.851 0 0 0 -39.7 0v1.874a61.926 61.926 0 0 0 -39.193 51.106 58.106 58.106 0 0 0 -.647 8.444c-.441 37.389-10.7 51.291-13.822 54.659a5.579 5.579 0 0 0 -1.049 6 5.519 5.519 0 0 0 5.088 3.358h44.456a24.862 24.862 0 0 0 23.547 24.742c.5.029.99.049 1.48.049a24.978 24.978 0 0 0 16.6-6.306 24.653 24.653 0 0 0 8.323-17.143c.029-.449.039-.888.039-1.337h44.437a5.594 5.594 0 0 0 4.127-9.352zm-59.72 9.362a13.845 13.845 0 0 1 -27.546 0zm45.388-11.129h-118.251a112.293 112.293 0 0 0 10.565-52.765 47.972 47.972 0 0 1 .5-6.814c4.343-27.364 23.2-45.053 48.064-45.053 24.89 0 43.751 17.679 48.045 45.033a46.665 46.665 0 0 1 .52 6.765 112.32 112.32 0 0 0 10.557 52.834zm-59.445-123.316h.225a8.679 8.679 0 0 1 8.769 8.171 62.191 62.191 0 0 0 -17.449 0 8.8 8.8 0 0 1 8.455-8.171z" fill="#eee" transform="translate(22.563 21.268)"/></svg>