<svg height="20" viewBox="0 0 20 20" width="20" xmlns="http://www.w3.org/2000/svg"><path d="m0 0h20v20h-20z" fill="none"/><path d="m12.292 2.318c-.312-.332-1.333-1.71-1.381-5.464a5.858 5.858 0 0 0 -.064-.839 6.194 6.194 0 0 0 -3.924-5.115v-.187a1.983 1.983 0 0 0 -1.985-1.977 1.984 1.984 0 0 0 -1.985 1.973v.191a6.193 6.193 0 0 0 -3.919 5.107 5.811 5.811 0 0 0 -.065.844c-.044 3.739-1.069 5.129-1.382 5.466a.558.558 0 0 0 -.1.6.552.552 0 0 0 .509.336h4.441a2.486 2.486 0 0 0 2.354 2.474h.148a2.5 2.5 0 0 0 1.661-.627 2.465 2.465 0 0 0 .832-1.714v-.134h4.444a.559.559 0 0 0 .413-.935zm-5.972.936a1.385 1.385 0 0 1 -2.755 0zm4.539-1.113h-11.826a11.229 11.229 0 0 0 1.057-5.276 4.8 4.8 0 0 1 .05-.681c.434-2.737 2.32-4.506 4.806-4.506s4.375 1.768 4.8 4.5a4.666 4.666 0 0 1 .052.677 11.232 11.232 0 0 0 1.06 5.286zm-5.945-12.331h.023a.868.868 0 0 1 .877.817 6.219 6.219 0 0 0 -1.745 0 .88.88 0 0 1 .845-.817z" fill="#d9d9d9" transform="translate(5.063 12.768)"/></svg>