<svg height="60" viewBox="0 0 60 60" width="60" xmlns="http://www.w3.org/2000/svg"><path d="m0 0h60v60h-60z" fill="none"/><path d="m-144.527-1420.835h-.017a6.34 6.34 0 0 1 -6.331-6.3 6.291 6.291 0 0 1 1.829-4.5 6.3 6.3 0 0 1 4.475-1.887h.043a6.353 6.353 0 0 1 6.346 6.3 6.355 6.355 0 0 1 -6.305 6.387zm-3.173-6.349v.046a3.173 3.173 0 0 0 3.146 3.191h.023a3.173 3.173 0 0 0 3.169-3.144 3.175 3.175 0 0 0 -3.145-3.191h-.035a3.167 3.167 0 0 0 -3.158 3.097zm-20.056 6.349h-.008a6.35 6.35 0 0 1 -6.338-6.254v-.05a6.3 6.3 0 0 1 1.829-4.5 6.3 6.3 0 0 1 4.476-1.887h.043a6.353 6.353 0 0 1 6.346 6.3 6.355 6.355 0 0 1 -6.305 6.387zm-3.169-6.3v.05a3.14 3.14 0 0 0 .912 2.2 3.134 3.134 0 0 0 2.232.945h.022a3.171 3.171 0 0 0 3.17-3.144 3.171 3.171 0 0 0 -3.144-3.191h-.03a3.166 3.166 0 0 0 -3.161 3.136zm31.291-7.177h-30.78a1.588 1.588 0 0 1 -1.56-1.3l-5.684-30.9-6.477-1.191a1.575 1.575 0 0 1 -1.014-.66 1.561 1.561 0 0 1 -.25-1.184 1.573 1.573 0 0 1 .66-1.014 1.567 1.567 0 0 1 1.183-.249l7.556 1.389a1.591 1.591 0 0 1 1.272 1.269l1.471 7.995 38.242.024a1.6 1.6 0 0 1 1.3.662 1.574 1.574 0 0 1 .205 1.433l-5.038 14.457a1.583 1.583 0 0 1 -1.495 1.061h-29.97l.93 5.044h29.456a1.566 1.566 0 0 1 1.129.434 1.567 1.567 0 0 1 .491 1.106 1.567 1.567 0 0 1 -.433 1.128 1.581 1.581 0 0 1 -1.106.491h-.082zm-30.961-11.36h29.412l3.936-11.3-35.431-.023z" fill="#444" transform="translate(189.425 1475.836)"/></svg>