<svg xmlns="http://www.w3.org/2000/svg" width="60" height="60" viewBox="0 0 60 60">
    <g id="prefix__ic_favorite" transform="translate(-363 -735)">
        <path id="prefix__area" d="M0 0H60V60H0z" transform="translate(363 735)" style="fill:none"/>
        <path id="prefix__favorite" d="M10154.075-8458.067c-15.987-11.557-23.134-17.528-24.473-26.226-.34-2.185-.969-9.679 5.117-14.329a15.44 15.44 0 0 1 11.767-2.581 14.124 14.124 0 0 1 8.414 4.832 14.15 14.15 0 0 1 8.422-4.834 15.414 15.414 0 0 1 11.754 2.575c6.094 4.663 5.465 12.154 5.128 14.34-1.341 8.694-8.485 14.669-24.473 26.223l-.828.6zm-10.341-39.987a11.714 11.714 0 0 0-6.848 2.22c-4.739 3.644-4.216 9.7-3.942 11.471 1.058 6.9 6.239 11.222 21.959 22.694 15.717-11.468 20.9-15.783 21.959-22.694.271-1.769.784-7.816-3.928-11.46l-.015-.011a12.155 12.155 0 0 0-9.312-2.016 10.936 10.936 0 0 0-7.532 5.1l-1.176 1.9-1.17-1.9a10.929 10.929 0 0 0-7.53-5.1 12.874 12.874 0 0 0-2.279-.207h-.187zm-8.8 12.436v-.3a10.043 10.043 0 0 1 10.026-9.982h.325v2.752h-.316a7.276 7.276 0 0 0-7.267 7.231v.3z" transform="translate(-9761.902 9244.47)" style="fill:#444;stroke:transparent;stroke-miterlimit:10"/>
    </g>
</svg>
