<svg height="60" viewBox="0 0 60 60" width="60" xmlns="http://www.w3.org/2000/svg"><path d="m0 0h60v60h-60z" fill="none"/><path d="m39.03 27.093-.005-.006c-.873-.937-3.733-4.829-3.867-15.428a16.677 16.677 0 0 0 -.178-2.368 17.469 17.469 0 0 0 -10.98-14.448v-.529a5.577 5.577 0 0 0 -5.558-5.582 5.578 5.578 0 0 0 -5.558 5.582v.529a17.464 17.464 0 0 0 -10.975 14.43 16.541 16.541 0 0 0 -.181 2.384c-.128 10.557-2.995 14.482-3.871 15.433a1.585 1.585 0 0 0 -.294 1.7 1.545 1.545 0 0 0 1.425.948h12.448a6.994 6.994 0 0 0 6.593 6.985c.14.008.277.014.414.014a7.009 7.009 0 0 0 6.977-6.621c.008-.127.011-.251.011-.378h12.443a1.549 1.549 0 0 0 1.43-.945 1.587 1.587 0 0 0 -.274-1.7zm-16.722 2.643a3.873 3.873 0 0 1 -7.713 0zm12.709-3.142h-33.111a31.935 31.935 0 0 0 2.959-14.894 13.657 13.657 0 0 1 .135-1.928c1.221-7.727 6.5-12.721 13.463-12.721s12.25 4.992 13.452 12.715a13.284 13.284 0 0 1 .145 1.91 31.943 31.943 0 0 0 2.957 14.918zm-16.645-34.819h.063a2.439 2.439 0 0 1 2.457 2.307 17.27 17.27 0 0 0 -4.886 0 2.473 2.473 0 0 1 2.366-2.307z" fill="#444" transform="translate(11.563 17.268)"/></svg>