<svg height="60" viewBox="0 0 60 60" width="60" xmlns="http://www.w3.org/2000/svg"><path d="m0 0h60v60h-60z" fill="none"/><path d="m59.171-1437.951a4.793 4.793 0 0 1 -4.786-4.786v-40.42a4.76 4.76 0 0 1 1.4-3.388 4.755 4.755 0 0 1 3.384-1.4h40.431a4.792 4.792 0 0 1 4.786 4.787v40.432a4.792 4.792 0 0 1 -4.786 4.78zm-1.776-4.78a1.783 1.783 0 0 0 1.776 1.776h40.429a1.78 1.78 0 0 0 1.775-1.776v-40.426a1.779 1.779 0 0 0 -1.775-1.777h-40.429a1.782 1.782 0 0 0 -1.775 1.777zm7.237-5.472v-11.912h11.924v11.821l-.1.01v.082zm3.144-3.136h5.65v-5.637h-5.65zm26.206 1.652h-14.716v-3.1h14.857v3.246zm0-5.846h-14.716v-3.136h14.857v3.277zm-29.35-10.23v-11.92h11.924v11.92zm3.146-3.137h5.649v-5.676h-5.649zm11.488 1.653v-3.137h14.857v3.137zm0-5.845v-3.137h14.857v3.136h-14.857z" fill="#444" transform="translate(-49.385 1492.949)"/></svg>