<svg height="10" viewBox="0 0 14 10" width="14" xmlns="http://www.w3.org/2000/svg"><path d="m1263.56 4928.238a2.843 2.843 0 0 1 .614-.209.917.917 0 0 0 .818-.891 1.017 1.017 0 0 0 -1.023-1.13 3.358 3.358 0 0 0 -1.491.237c-2.046.8-3.478 3.091-3.478 6.241v.267a3.183 3.183 0 0 0 3.1 3.24 2.84 2.84 0 0 0 3.1-2.941 2.758 2.758 0 0 0 -2.688-2.882v-.03a2.1 2.1 0 0 1 1.048-1.902zm7.8 0a2.841 2.841 0 0 1 .614-.209.917.917 0 0 0 .819-.891 1.017 1.017 0 0 0 -1.023-1.13 3.359 3.359 0 0 0 -1.491.237c-2.046.8-3.478 3.091-3.478 6.241v.267a3.183 3.183 0 0 0 3.1 3.24 2.84 2.84 0 0 0 3.1-2.941 2.758 2.758 0 0 0 -2.689-2.882v-.03a2.1 2.1 0 0 1 1.052-1.902z" fill="#666" transform="translate(-1259 -4925.993)"/></svg>