<svg height="10" viewBox="0 0 14 10" width="14" xmlns="http://www.w3.org/2000/svg"><path d="m1268.431 5115.759a3.011 3.011 0 0 1 -.614.208.916.916 0 0 0 -.818.892 1.017 1.017 0 0 0 1.023 1.129 3.333 3.333 0 0 0 1.49-.239c2.046-.8 3.478-3.09 3.478-6.24v-.267a3.183 3.183 0 0 0 -3.1-3.239 2.84 2.84 0 0 0 -3.1 2.942 2.759 2.759 0 0 0 2.689 2.882v.03a2.1 2.1 0 0 1 -1.048 1.902zm-7.8 0a3.006 3.006 0 0 1 -.614.208.916.916 0 0 0 -.818.892 1.017 1.017 0 0 0 1.023 1.129 3.332 3.332 0 0 0 1.49-.239c2.046-.8 3.478-3.09 3.478-6.24v-.267a3.183 3.183 0 0 0 -3.1-3.239 2.84 2.84 0 0 0 -3.1 2.942 2.758 2.758 0 0 0 2.689 2.882v.03a2.1 2.1 0 0 1 -1.051 1.902z" fill="#666" transform="translate(-1258.991 -5108.004)"/></svg>