<svg width="16" height="16" viewBox="0 0 16 16" fill="none" xmlns="http://www.w3.org/2000/svg">
<path fill-rule="evenodd" clip-rule="evenodd" d="M10 2.5C10 2.22386 10.2239 2 10.5 2H13.5C13.7761 2 14 2.22386 14 2.5V5.55591C14 5.83205 13.7761 6.05591 13.5 6.05591C13.2239 6.05591 13 5.83205 13 5.55591V3.70711L9.85355 6.85355C9.65829 7.04882 9.34171 7.04882 9.14645 6.85355C8.95118 6.65829 8.95118 6.34171 9.14645 6.14645L12.2929 3H10.5C10.2239 3 10 2.77614 10 2.5Z" fill="#222222"/>
<path fill-rule="evenodd" clip-rule="evenodd" d="M2 3.6C2 3.26863 2.26863 3 2.6 3H8C8.33137 3 8.5 3.16863 8.5 3.5C8.5 3.83137 8.33137 4 8 4H3V13H13V8C13 7.66863 13.1686 7.5 13.5 7.5C13.8314 7.5 14 7.66863 14 8V13.2C14 13.5314 13.7314 14 13.4 14H2.6C2.26863 14 2 13.5314 2 13.2C2 12.8686 2 3.6 2 3.6Z" fill="#222222"/>
</svg>
