<svg xmlns="http://www.w3.org/2000/svg" xmlns:xlink="http://www.w3.org/1999/xlink" width="120" height="120" viewBox="0 0 120 120"><defs><clipPath id="a"><rect width="120" height="120" transform="translate(280 10431)" fill="#fff"/></clipPath></defs><g transform="translate(-280 -10431)" clip-path="url(#a)"><g transform="translate(306.699 10432.516)"><g transform="translate(0.75 0.75)"><path d="M56.882,115.994H9.72a8.971,8.971,0,0,1-8.97-8.97V9.72A8.971,8.971,0,0,1,9.72.75H56.882a8.971,8.971,0,0,1,8.97,8.97v97.3A8.971,8.971,0,0,1,56.882,115.994ZM17.241,7.663a1.009,1.009,0,0,0-.794-.984,7.171,7.171,0,0,0-1.524-.163h-2.7A5.28,5.28,0,0,0,6.944,11.8v92.814a5.278,5.278,0,0,0,5.278,5.279H54.38a5.281,5.281,0,0,0,5.281-5.279V11.8A5.281,5.281,0,0,0,54.38,6.516H51.64a6.442,6.442,0,0,0-1.427.161.911.911,0,0,0-.709.889v.847a2.8,2.8,0,0,1-2.809,2.809H20.052a2.812,2.812,0,0,1-2.81-2.809Zm8.335,97.526H41.028M30.164,6.516H36.44" transform="translate(-0.75 -0.75)" fill="none" stroke="#419F81" stroke-linecap="round" stroke-linejoin="round" stroke-width="2"/><g transform="translate(3.69 -0.788)" fill="none" stroke-linecap="round" stroke-linejoin="round"><path d="M38.065,6.555A1.053,1.053,0,1,1,37.01,5.5,1.056,1.056,0,0,1,38.065,6.555Z" stroke="none"/><path d="M 37.009521484375 5.50300121307373 C 37.58902359008789 5.50300121307373 38.06490325927734 5.975040912628174 38.06490325927734 6.554531097412109 C 38.06490325927734 7.134021282196045 37.58902359008789 7.606060981750488 37.009521484375 7.606060981750488 C 36.42620086669922 7.606060981750488 35.95800018310547 7.134021282196045 35.95800018310547 6.554531097412109 C 35.95800018310547 5.975040912628174 36.42620086669922 5.50300121307373 37.009521484375 5.50300121307373 Z" stroke="none" fill="#419F81"/></g></g></g></g></svg>