<?xml version="1.0" standalone="no"?><!DOCTYPE svg PUBLIC "-//W3C//DTD SVG 1.1//EN" "http://www.w3.org/Graphics/SVG/1.1/DTD/svg11.dtd"><svg t="1581006283449" class="icon" viewBox="0 0 1024 1024" version="1.1" xmlns="http://www.w3.org/2000/svg" p-id="3342" xmlns:xlink="http://www.w3.org/1999/xlink" width="32" height="32"><defs><style type="text/css"></style></defs><path d="M512 246.186667C369.493333 32 85.333333 157.44 85.333333 390.4c0 157.866667 142.08 270.08 248.746667 354.986667 78.08 61.866667 116.48 89.6 145.066667 113.066666 19.2 15.786667 46.506667 15.786667 65.28-0.426666 28.16-23.893333 66.133333-52.053333 145.066666-112.64C798.293333 662.186667 938.666667 546.133333 938.666667 389.12c0-231.68-284.16-357.12-426.666667-142.933333z m251.306667 174.08c-10.666667 0-19.626667-7.68-21.76-17.92-8.96-43.52-38.826667-73.813333-72.533334-86.186667-8.533333-3.413333-14.506667-11.52-14.506666-20.906667 0-15.36 15.36-26.026667 29.44-20.906666 48.64 17.92 89.173333 61.866667 100.693333 119.893333 2.986667 13.653333-7.68 26.026667-21.333333 26.026667z" fill="#ffffff" p-id="3343"></path></svg>